<?xml version="1.0" standalone="no"?>
<!DOCTYPE svg PUBLIC "-//W3C//DTD SVG 20010904//EN"
 "http://www.w3.org/TR/2001/REC-SVG-20010904/DTD/svg10.dtd">
<svg version="1.0" xmlns="http://www.w3.org/2000/svg"
 width="1000.000000pt" height="1000.000000pt" viewBox="0 0 1000.000000 1000.000000"
 preserveAspectRatio="xMidYMid meet">
<metadata>
Created by potrace 1.14, written by Peter Selinger 2001-2017
</metadata>
<g transform="translate(0.000000,1000.000000) scale(0.100000,-0.100000)"
fill="#000000" stroke="none">
<path d="M4748 9685 c-2 -2 -43 -6 -93 -9 -49 -4 -103 -9 -120 -11 -16 -2 -57
-7 -90 -10 -33 -3 -85 -10 -115 -15 -30 -5 -73 -12 -95 -15 -22 -3 -103 -19
-180 -35 -77 -17 -151 -33 -165 -35 -14 -3 -50 -13 -80 -22 -30 -9 -62 -18
-72 -19 -22 -5 -298 -93 -323 -104 -11 -5 -74 -30 -140 -56 -204 -80 -442
-195 -610 -295 -27 -17 -58 -33 -67 -36 -10 -3 -18 -8 -18 -12 0 -4 -15 -15
-32 -25 -78 -41 -278 -177 -388 -263 -43 -33 -197 -158 -206 -167 -6 -6 -44
-40 -85 -76 -161 -143 -356 -348 -498 -525 -31 -38 -60 -75 -66 -82 -23 -29
-32 -40 -54 -73 -13 -19 -29 -40 -35 -45 -6 -6 -15 -18 -21 -27 -5 -10 -41
-64 -80 -120 -38 -57 -70 -105 -70 -108 -1 -3 -17 -30 -36 -60 -20 -30 -44
-71 -55 -90 -10 -19 -21 -37 -24 -40 -7 -7 -55 -98 -129 -248 -82 -164 -159
-350 -216 -518 -26 -77 -50 -146 -53 -154 -6 -19 -5 -16 -37 -125 -14 -49 -27
-99 -29 -110 -2 -11 -11 -47 -19 -80 -9 -33 -18 -71 -21 -85 -2 -14 -7 -36
-10 -50 -3 -14 -8 -38 -11 -55 -5 -29 -17 -99 -31 -175 -3 -19 -7 -46 -9 -60
-1 -14 -6 -45 -9 -70 -4 -25 -9 -67 -11 -95 -2 -27 -8 -88 -12 -135 -9 -104
-9 -605 0 -715 8 -93 17 -180 23 -215 2 -14 6 -50 9 -80 4 -30 9 -64 12 -74 3
-11 7 -34 9 -50 1 -17 5 -44 9 -61 3 -16 8 -43 11 -60 6 -34 47 -214 59 -255
1 -3 5 -21 9 -40 11 -48 94 -320 106 -345 7 -16 19 -51 25 -75 1 -3 7 -18 14
-35 6 -16 31 -77 54 -135 23 -58 45 -107 49 -108 4 -2 8 -10 8 -18 0 -8 4 -22
9 -32 5 -9 22 -44 38 -77 15 -33 31 -61 36 -63 4 -2 7 -10 7 -18 0 -7 8 -28
18 -46 10 -18 32 -58 48 -88 16 -30 31 -57 34 -60 3 -3 16 -25 29 -50 26 -50
151 -252 160 -260 3 -3 32 -43 63 -90 31 -47 66 -95 77 -107 12 -12 21 -26 21
-32 0 -5 3 -11 8 -13 4 -1 27 -30 52 -63 123 -163 377 -436 546 -585 163 -144
243 -208 416 -331 181 -128 418 -276 418 -261 0 4 4 3 8 -3 9 -12 22 -20 158
-88 153 -77 260 -126 399 -181 66 -27 129 -52 140 -56 19 -8 189 -63 290 -93
65 -20 136 -39 155 -43 8 -1 62 -14 120 -27 58 -14 121 -28 140 -31 34 -6 59
-10 118 -21 15 -3 45 -8 67 -11 22 -3 54 -7 70 -10 201 -30 352 -39 635 -39
216 0 427 8 486 19 10 2 46 7 79 10 111 13 176 23 215 31 14 3 39 7 55 10 41
6 87 15 105 20 8 2 31 7 50 10 45 8 245 59 335 85 39 12 77 23 85 25 24 5 209
70 275 96 33 13 62 24 65 24 9 3 61 25 116 50 30 14 57 25 60 25 4 0 210 103
356 177 15 8 30 19 33 24 4 5 11 7 16 4 5 -4 9 -2 9 4 0 5 8 12 19 16 28 8
288 169 336 207 6 5 60 45 120 90 61 45 126 95 145 112 20 17 58 49 84 71 151
126 378 352 527 525 35 41 66 77 69 80 3 3 32 41 65 85 33 44 68 89 77 99 10
11 18 23 18 27 0 4 6 14 13 21 22 23 87 118 87 127 0 5 3 11 8 13 9 4 52 65
52 73 0 4 11 21 25 39 14 18 25 38 25 44 0 7 4 12 8 12 4 0 13 12 19 28 7 15
17 34 22 42 35 51 221 408 221 424 0 2 15 37 33 78 28 62 53 122 103 253 4 11
8 22 9 25 0 3 9 30 20 60 11 30 20 57 20 60 1 3 4 12 8 20 7 18 26 80 32 106
3 10 21 78 40 149 34 126 78 328 90 410 3 23 7 52 10 65 4 23 8 46 21 145 3
22 7 63 9 90 3 28 8 88 12 135 15 171 7 714 -13 840 -2 14 -6 50 -10 80 -3 30
-7 66 -10 80 -6 33 -24 149 -29 180 -3 24 -18 96 -30 150 -3 14 -8 36 -10 50
-10 59 -77 296 -121 430 -26 80 -49 147 -49 150 -2 8 -13 34 -73 180 -56 139
-181 395 -247 510 -21 36 -46 81 -57 100 -35 60 -161 254 -180 276 -10 11 -18
23 -18 27 0 4 -7 15 -15 24 -8 10 -34 45 -59 78 -25 33 -49 65 -53 70 -5 6
-21 28 -37 50 -17 22 -33 42 -36 45 -3 3 -16 18 -28 34 -70 91 -311 343 -457
477 -98 90 -224 191 -360 291 -5 4 -23 18 -40 31 -49 39 -341 227 -351 227 -3
0 -18 8 -32 18 -15 11 -58 36 -97 57 -38 20 -85 46 -102 57 -18 11 -33 17 -33
13 0 -3 -13 3 -29 14 -16 12 -31 21 -34 21 -3 0 -52 22 -109 49 -89 42 -128
59 -148 66 -3 1 -18 7 -35 14 -107 43 -254 98 -285 106 -3 1 -12 4 -20 8 -24
9 -124 41 -136 43 -7 1 -52 13 -100 27 -49 14 -100 28 -114 31 -14 3 -34 7
-45 10 -152 37 -462 89 -605 102 -41 3 -91 8 -110 11 -40 5 -627 13 -632 8z"/>
</g>
</svg>
